<?xml version="1.0" standalone="no"?>
<!DOCTYPE svg PUBLIC "-//W3C//DTD SVG 20010904//EN"
 "http://www.w3.org/TR/2001/REC-SVG-20010904/DTD/svg10.dtd">
<svg version="1.0" xmlns="http://www.w3.org/2000/svg"
 width="640.000000pt" height="640.000000pt" viewBox="0 0 640.000000 640.000000"
 preserveAspectRatio="xMidYMid meet">
<metadata>
Created by potrace 1.14, written by Peter Selinger 2001-2017
</metadata>
<g transform="translate(0.000000,640.000000) scale(0.100000,-0.100000)"
fill="#000000" stroke="none">
<path d="M2505 6333 c-82 -36 -156 -71 -163 -78 -12 -10 -9 -28 13 -106 44
-153 46 -137 -34 -220 -125 -131 -150 -163 -171 -221 -12 -32 -26 -58 -33 -59
-7 0 -69 -1 -138 -2 l-125 -2 -42 -42 c-37 -37 -42 -47 -43 -90 0 -26 -2 -59
-4 -73 -1 -14 -5 -51 -9 -82 l-5 -57 102 -118 c56 -65 106 -123 112 -129 5 -6
42 -46 80 -89 39 -43 86 -95 105 -115 129 -133 149 -158 144 -177 -3 -11 0
-26 8 -34 7 -8 40 -50 72 -94 33 -44 62 -82 65 -85 4 -3 31 -34 61 -69 44 -52
52 -66 40 -73 -277 -162 -416 -252 -610 -396 -494 -366 -923 -827 -1207 -1297
-58 -95 -169 -313 -204 -400 -57 -140 -100 -273 -120 -365 -6 -30 -16 -61 -23
-69 -8 -11 -8 -13 1 -7 10 6 11 1 2 -21 -6 -15 -10 -29 -10 -30 5 -16 -1 -32
-10 -30 -6 1 -13 -5 -14 -13 -14 -73 -15 -80 -3 -80 9 0 8 -3 -2 -10 -9 -6
-10 -10 -3 -10 8 0 9 -9 4 -28 -14 -48 -9 -325 6 -340 7 -7 13 -25 14 -40 1
-32 4 -50 15 -77 7 -18 6 -19 -12 -5 -17 14 -18 13 -7 -1 7 -8 22 -47 33 -85
100 -329 269 -563 538 -743 192 -129 502 -237 702 -245 45 -2 75 -7 78 -14 3
-9 80 -12 285 -11 155 1 271 4 257 8 -23 6 -23 8 -5 12 11 3 53 7 93 8 39 1
84 4 100 7 153 26 229 42 360 75 697 178 1423 558 2041 1068 209 172 504 462
641 631 25 30 48 57 51 60 3 3 41 52 86 110 253 332 445 699 536 1030 16 56
51 239 62 320 11 87 6 281 -9 370 -4 19 -11 62 -17 95 -25 142 -103 325 -198
463 -241 352 -635 563 -1176 630 -130 16 -552 7 -655 -14 -33 -7 -34 -6 -20
11 8 11 60 74 115 140 55 66 127 154 160 194 33 40 68 82 78 94 14 17 16 36
13 121 -2 56 -4 118 -5 138 -1 31 -8 43 -46 74 -45 37 -45 37 -138 36 -50 -1
-92 -2 -92 -2 0 -7 -60 -3 -70 5 -7 5 -36 50 -64 99 -27 49 -58 96 -68 105
-10 9 -48 42 -84 73 l-66 58 35 119 c19 65 32 125 29 133 -6 16 -248 116 -303
125 -27 4 -39 1 -52 -13 -33 -36 -112 -144 -112 -153 0 -21 -38 -19 -140 8
-60 16 -110 28 -112 26 -3 -2 -81 -11 -173 -20 -46 -4 -156 -24 -192 -34 -39
-11 -42 -9 -117 91 -32 43 -64 82 -70 87 -7 6 -65 -14 -161 -56z m324 -1693
c17 -7 31 -16 31 -21 0 -18 2 -25 18 -51 9 -16 20 -28 24 -28 10 0 10 -37 0
-44 -11 -7 -21 2 -77 69 -82 99 -80 94 -51 91 14 -2 39 -9 55 -16z m2064 -565
c121 -10 257 -39 364 -78 78 -29 168 -74 184 -93 41 -48 72 -203 71 -364 0
-250 -63 -482 -207 -765 -159 -312 -426 -653 -728 -930 -54 -49 -106 -97 -115
-105 -39 -36 -184 -152 -272 -217 -386 -285 -817 -512 -1240 -651 -132 -44
-342 -100 -430 -116 -14 -2 -36 -7 -50 -10 -25 -5 -91 -14 -160 -22 -19 -2
-47 -6 -62 -9 -31 -7 -390 -8 -428 -1 -14 2 -45 7 -70 11 -251 34 -475 130
-619 264 l-44 40 0 123 c-1 148 6 212 39 341 114 457 460 971 954 1421 108 98
122 109 220 187 470 372 944 635 1455 808 121 40 333 100 415 116 155 30 251
43 380 51 58 3 106 7 108 8 4 4 150 -2 235 -9z m-4531 -2415 c-2 -16 -8 -33
-13 -35 -4 -3 -5 7 -2 22 3 16 6 33 6 40 0 7 3 10 7 8 4 -2 5 -18 2 -35z
m1823 -1640 c3 -5 1 -10 -4 -10 -6 0 -11 5 -11 10 0 6 2 10 4 10 3 0 8 -4 11
-10z"/>
<path d="M336 1183 c4 -15 7 -33 7 -40 0 -7 3 -10 7 -8 9 6 -1 75 -11 75 -5 0
-6 -12 -3 -27z"/>
<path d="M2300 10 c0 -5 5 -10 11 -10 5 0 7 5 4 10 -3 6 -8 10 -11 10 -2 0 -4
-4 -4 -10z"/>
<path d="M2330 10 c0 -5 5 -10 11 -10 5 0 7 5 4 10 -3 6 -8 10 -11 10 -2 0 -4
-4 -4 -10z"/>
<path d="M1653 3 c9 -2 25 -2 35 0 9 3 1 5 -18 5 -19 0 -27 -2 -17 -5z"/>
</g>
</svg>
